Land_normalized_Motion_pl07
version=1
nRows=20
nColumns=43
inDegrees=yes
endheader
time		pelvis_tilt		pelvis_list		pelvis_rotation		pelvis_tx		pelvis_ty		pelvis_tz		hip_flexion_r		hip_adduction_r		hip_rotation_r		knee_angle_r		ankle_angle_r		subtalar_angle_r		mtp_angle_r		hip_flexion_l		hip_adduction_l		hip_rotation_l		knee_angle_l		ankle_angle_l		subtalar_angle_l		mtp_angle_l		lumbar_extension		lumbar_bending		lumbar_rotation		neck_flexion		neck_lateral_bending		neck_rotation		arm_flex_r		arm_add_r		arm_rot_r		elbow_flex_r		pro_sup_r		wrist_flex_r		wrist_dev_r		hand_finger_flex_r		arm_flex_l		arm_add_l		arm_rot_l		elbow_flex_l		pro_sup_l		wrist_flex_l		wrist_dev_l		hand_finger_flex_l		
3.086313		0.089219		8.302874		93.854484		-0.009766		0.526471		0.464371		71.852805		-5.132412		0.701632		-122.522935		16.303795		2.195245		23.797709		70.807070		-6.926128		2.582519		-121.383582		20.973314		6.541553		27.536562		-50.724724		-0.535776		1.104907		5.797601		6.927071		-4.675940		19.505492		-23.805734		-8.359518		46.392277		125.746442		-17.160612		-15.144250		-31.793247		14.078782		-23.451574		-9.357763		58.479247		142.229933		-32.914139		-8.028112		-15.118281		
3.088939		0.069814		8.450336		93.873769		-0.009451		0.521476		0.462986		72.489565		-5.143886		0.889388		-123.591717		16.039662		2.606649		23.905544		71.362973		-7.046033		2.789746		-122.386420		20.897082		7.008731		27.673402		-51.066991		-0.579936		1.018583		5.937442		7.036129		-4.641547		21.363832		-23.799201		-7.795769		46.799379		125.950652		-17.025783		-15.285347		-31.735019		16.017090		-23.664268		-8.542104		58.949793		142.482861		-32.827497		-8.276124		-15.021327		
3.091566		0.051621		8.550984		93.882593		-0.009080		0.516452		0.461625		73.167926		-5.162472		1.069780		-124.641224		15.846788		3.065268		24.034357		71.967122		-7.173476		2.979553		-123.369198		20.826023		7.449058		27.832563		-51.341489		-0.635419		0.953690		6.031506		7.137727		-4.602126		23.188751		-23.786234		-7.234860		47.221625		126.165688		-16.926493		-15.416421		-31.685919		17.969498		-23.894936		-7.637266		59.401041		142.744053		-32.753092		-8.465838		-14.909171		
3.094192		-0.013496		8.518153		93.867158		-0.008715		0.511029		0.460137		74.040950		-5.206695		1.366551		-125.739816		15.728228		3.943100		24.347280		72.737772		-7.302494		3.132778		-124.382349		20.710222		8.102133		28.240011		-51.391091		-0.769832		0.971035		5.831519		7.329583		-4.643498		24.825291		-23.851055		-6.654802		47.668672		126.392273		-17.033459		-15.505996		-31.702150		20.027744		-24.074780		-6.428842		59.707148		142.975026		-32.978262		-8.326462		-14.701676		
3.096818		-0.043055		8.547094		93.861549		-0.008287		0.506004		0.458829		74.766200		-5.244350		1.549538		-126.736259		15.724299		4.416828		24.548902		73.414552		-7.436290		3.264975		-125.323604		20.646547		8.363049		28.507200		-51.574212		-0.843797		0.924590		5.939073		7.368969		-4.623113		26.584514		-23.795487		-6.177166		48.140119		126.526961		-16.995090		-15.604556		-31.662210		22.022503		-24.313792		-5.400261		60.113092		143.218451		-32.949958		-8.403357		-14.486934		
3.099444		-0.130922		8.543669		93.863094		-0.007997		0.500849		0.457458		75.554627		-5.330687		1.854238		-127.763684		15.696893		5.173902		24.859401		74.149162		-7.528026		3.332382		-126.287242		20.350750		8.580127		28.960231		-51.668965		-0.969758		0.945840		5.849437		7.523671		-4.674214		28.181593		-23.910246		-5.605580		48.683476		126.521672		-16.971496		-15.682701		-31.614032		24.151792		-24.485958		-4.102357		60.398448		143.368805		-32.984652		-8.285228		-14.084748		
3.102071		-0.166749		8.605848		93.866143		-0.007579		0.496070		0.456188		76.196147		-5.390105		2.017215		-128.696351		15.736798		5.511380		25.011852		74.775626		-7.658483		3.445667		-127.192831		20.260142		8.640486		29.181081		-51.895622		-1.028056		0.871458		6.076466		7.509431		-4.635818		29.945802		-23.815400		-5.162643		49.174291		126.535191		-16.858618		-15.769485		-31.548128		26.163897		-24.670223		-3.174894		60.774990		143.554537		-32.827753		-8.418672		-13.836889		
3.104697		-0.196346		8.688269		93.875268		-0.007283		0.491431		0.454970		76.794144		-5.474173		2.167290		-129.589278		15.729349		5.831155		25.118203		75.380327		-7.785900		3.540961		-128.077892		20.098548		8.714555		29.320843		-52.145632		-1.062406		0.803663		6.300101		7.496680		-4.554407		31.726650		-23.793499		-4.631196		49.648625		126.567949		-16.685117		-15.869741		-31.467864		28.190164		-24.832500		-2.244711		61.146189		143.733161		-32.572608		-8.606422		-13.630187		
3.107323		-0.526956		8.754490		93.885517		-0.007152		0.486825		0.453753		77.485951		-5.639609		2.795197		-130.506218		15.604683		6.737611		26.644788		75.906124		-7.829883		3.249954		-128.890332		19.559049		8.599333		31.873532		-52.357186		-1.420737		0.967308		6.279738		7.808032		-4.979078		33.000330		-24.209898		-3.996769		50.433539		124.972544		-17.012355		-15.814144		-31.343022		30.953938		-24.893397		0.222327		60.768122		142.904507		-34.326192		-8.201525		-11.773273		
3.109949		-0.534465		8.842018		93.914046		-0.006770		0.482256		0.452469		78.041583		-5.721020		2.890175		-131.362630		15.609365		7.034569		26.824374		76.475879		-7.957339		3.390383		-129.738202		19.507927		8.630873		32.129894		-52.589568		-1.427567		0.861365		6.502179		7.775983		-4.905708		34.752738		-24.096452		-3.516249		50.932841		124.962575		-16.895812		-15.907930		-31.263340		32.964235		-24.978209		1.001626		61.069053		143.019770		-34.134340		-8.386112		-11.470978		
3.112576		-0.532175		8.931251		93.966521		-0.006693		0.477885		0.451316		78.588172		-5.876130		3.032258		-132.164934		15.515647		7.460943		26.933246		77.033710		-8.054454		3.517597		-130.546987		19.385247		8.731271		32.224838		-52.841521		-1.384181		0.820419		6.682305		7.772887		-4.802190		36.571438		-24.105256		-2.978740		51.293816		124.994613		-16.749223		-15.918272		-31.200604		35.030613		-25.011788		1.899249		61.364788		143.160783		-33.817243		-8.545351		-11.311006		
3.115202		-0.699858		9.106206		94.133175		-0.006797		0.473607		0.450094		79.070586		-6.217673		3.463467		-133.028965		15.477340		8.899583		27.591412		77.434197		-7.993924		3.483897		-131.311407		19.210554		8.902533		32.814877		-53.122797		-1.454046		0.902125		6.501782		8.036014		-5.067591		38.029135		-24.432583		-2.253078		51.885119		124.110461		-17.182167		-15.564669		-31.412564		37.611718		-24.935370		3.869550		61.160194		142.654639		-34.278777		-8.005377		-11.214982		
3.117828		-0.818506		9.327151		94.219146		-0.006602		0.469594		0.448920		79.490737		-6.400619		3.708843		-133.816250		15.196455		9.245678		28.211468		77.747185		-8.042599		3.496950		-132.054382		19.099339		8.891798		33.382594		-53.520073		-1.537998		0.874521		6.701320		8.204333		-5.148723		39.713517		-24.566417		-1.577622		52.302359		123.295030		-17.215781		-15.600460		-31.410177		39.961862		-24.973780		5.335405		61.149946		142.310857		-34.582775		-7.983948		-11.042540		
3.120455		-0.803806		9.420862		94.266209		-0.006333		0.465359		0.447708		80.018788		-6.500374		3.795756		-134.577886		15.101780		9.415226		28.308176		78.237404		-8.150910		3.670988		-132.807543		19.145522		8.900149		33.459932		-53.780697		-1.504832		0.784440		7.034219		8.190142		-5.085160		41.532440		-24.415266		-1.150824		52.590343		123.274903		-17.039361		-15.670881		-31.341951		41.942288		-24.999456		6.042082		61.436565		142.470732		-34.280729		-8.212581		-10.926869		
3.123081		-0.855807		9.610932		94.365611		-0.006123		0.461378		0.446538		80.445894		-6.685767		3.939664		-135.330712		14.914171		9.832262		28.643357		78.579838		-8.202289		3.777769		-133.526333		19.167182		9.007170		33.696008		-54.130753		-1.520566		0.732162		7.225947		8.329528		-5.108143		43.314089		-24.444508		-0.505043		52.786222		122.771154		-17.028554		-15.766782		-31.438023		44.158451		-25.038743		7.275887		61.546057		142.383978		-34.206306		-8.174238		-10.909823		
3.125707		-1.016383		9.927133		94.506940		-0.005991		0.457701		0.445393		80.729644		-6.947932		4.245435		-136.093214		14.746808		10.534608		29.502717		78.704484		-8.226095		3.763299		-134.199513		19.220279		9.221340		34.289253		-54.619547		-1.630578		0.740702		7.282631		8.664719		-5.309208		44.993513		-24.730287		0.446237		52.964562		121.273168		-17.391365		-15.982035		-31.863622		46.709231		-25.108249		9.317458		61.405849		141.780753		-34.670380		-7.678265		-11.077888		
3.128333		-1.030868		10.069770		94.567552		-0.005706		0.453733		0.444233		81.203875		-7.065323		4.318140		-136.825139		14.503504		10.664113		29.706923		79.081205		-8.336820		3.904495		-134.889797		19.249734		9.331625		34.432515		-54.898886		-1.650070		0.675309		7.360941		8.833437		-5.264199		46.835961		-24.677335		1.068432		52.985113		121.082450		-17.199393		-16.082472		-31.864013		48.811862		-25.088482		10.228575		61.532618		141.867020		-34.306384		-7.809853		-10.963694		
3.130960		-1.120786		10.310978		94.613040		-0.005308		0.450030		0.443115		81.554185		-7.131001		4.492314		-137.539356		14.302405		10.812458		30.198897		79.284482		-8.456244		4.015413		-135.543485		19.361357		9.629823		34.757905		-55.269255		-1.781180		0.641243		7.287351		9.150014		-5.298380		48.646381		-24.747010		1.941571		52.891027		120.318850		-17.318421		-16.351832		-32.181057		51.143027		-25.050594		11.609256		61.439728		141.678603		-34.194713		-7.571892		-11.028603		
3.133586		-1.200606		10.430312		94.617286		-0.004909		0.446349		0.442103		81.999880		-7.147235		4.632011		-138.193208		14.261425		10.861210		30.671410		79.590861		-8.629749		4.078654		-136.156540		19.517375		9.859553		35.063630		-55.562223		-1.911936		0.623355		7.502134		9.318365		-5.338742		50.480739		-24.718648		2.649162		52.785819		119.546088		-17.453104		-16.561284		-32.502705		53.400853		-24.863045		12.747314		61.317162		141.480920		-34.138360		-7.330738		-11.135466		
3.136212		-1.251784		10.506528		94.594327		-0.004489		0.442609		0.441069		82.490407		-7.133458		4.722392		-138.844904		14.215964		10.781481		30.959596		79.951772		-8.839576		4.164751		-136.778262		19.660996		10.080295		35.250206		-55.786073		-2.039956		0.644512		7.588370		9.485154		-5.377299		52.282696		-24.733738		3.351862		52.691710		119.167085		-17.452739		-16.669349		-32.682510		55.607398		-24.608657		13.715686		61.145074		141.529522		-33.861009		-7.338265		-11.187294		
